<svg width="32" height="32" viewBox="0 0 32 32" fill="none" xmlns="http://www.w3.org/2000/svg">
<path fill-rule="evenodd" clip-rule="evenodd" d="M11.3334 4C12.2175 4 13.0653 4.35119 13.6904 4.97631C14.3156 5.60143 14.6667 6.44928 14.6667 7.33333V9.33333H17.3334V7.33333C17.3333 6.48704 17.6551 5.67239 18.2335 5.05461C18.8119 4.43683 19.6036 4.06218 20.4481 4.00667L20.7454 4C21.5847 4.00026 22.4025 4.26449 23.0833 4.75527C23.7641 5.24605 24.2733 5.93852 24.5387 6.73467L28.8081 19.5413C29.174 20.3574 29.353 21.2449 29.3317 22.139C29.3105 23.0331 29.0896 23.9111 28.6853 24.7089C28.2811 25.5066 27.7035 26.2039 26.995 26.7497C26.2865 27.2955 25.465 27.676 24.5905 27.8634C23.716 28.0507 22.8107 28.0403 21.9408 27.8327C21.0708 27.6251 20.2583 27.2257 19.5627 26.6636C18.867 26.1015 18.3058 25.3911 17.9201 24.5842C17.5344 23.7773 17.3339 22.8943 17.3334 22V12H14.6667V22C14.6662 22.8943 14.4658 23.7773 14.0801 24.5842C13.6944 25.3911 13.1332 26.1015 12.4375 26.6636C11.7418 27.2257 10.9293 27.6251 10.0594 27.8327C9.18949 28.0403 8.28416 28.0507 7.40967 27.8634C6.53517 27.676 5.71362 27.2955 5.00513 26.7497C4.29663 26.2039 3.71911 25.5066 3.31482 24.7089C2.91052 23.9111 2.68968 23.0331 2.66844 22.139C2.6472 21.2449 2.82611 20.3574 3.19208 19.5413L7.46008 6.73467C7.71255 5.97792 8.18552 5.31396 8.81823 4.82808C9.45094 4.3422 10.2145 4.05661 11.0107 4.008L11.3334 4ZM8.66675 18.6667C6.86008 18.6667 5.33341 20.1987 5.33341 22C5.33341 22.6593 5.52891 23.3037 5.89518 23.8519C6.26145 24.4001 6.78205 24.8273 7.39114 25.0796C8.00022 25.3319 8.67045 25.3979 9.31705 25.2693C9.96365 25.1407 10.5576 24.8232 11.0238 24.357C11.4899 23.8908 11.8074 23.2969 11.936 22.6503C12.0646 22.0037 11.9986 21.3335 11.7463 20.7244C11.4941 20.1153 11.0668 19.5947 10.5186 19.2284C9.97048 18.8622 9.32602 18.6667 8.66675 18.6667ZM23.3334 18.6667C22.6741 18.6667 22.0297 18.8622 21.4815 19.2284C20.9333 19.5947 20.5061 20.1153 20.2538 20.7244C20.0015 21.3335 19.9355 22.0037 20.0641 22.6503C20.1927 23.2969 20.5102 23.8908 20.9764 24.357C21.4426 24.8232 22.0365 25.1407 22.6831 25.2693C23.3297 25.3979 23.9999 25.3319 24.609 25.0796C25.2181 24.8273 25.7387 24.4001 26.105 23.8519C26.4713 23.3037 26.6667 22.6593 26.6667 22C26.6667 20.1987 25.1401 18.6667 23.3334 18.6667Z" fill="#0F70BB"/>
</svg>
