<svg width="29" height="28" viewBox="0 0 29 28" fill="none" xmlns="http://www.w3.org/2000/svg">
<path d="M1.66676 11.6653C1.35732 11.6653 1.06055 11.5424 0.841737 11.3236C0.622927 11.1048 0.5 10.808 0.5 10.4985V1.16676C0.5 0.857319 0.622927 0.560548 0.841737 0.341737C1.06055 0.122927 1.35732 0 1.66676 0H11.0009C11.3103 0 11.6071 0.122927 11.8259 0.341737C12.0447 0.560548 12.1676 0.857319 12.1676 1.16676V10.4985C12.1676 10.808 12.0447 11.1048 11.8259 11.3236C11.6071 11.5424 11.3103 11.6653 11.0009 11.6653H1.66676ZM18.0015 11.6653C17.692 11.6653 17.3952 11.5424 17.1764 11.3236C16.9576 11.1048 16.8347 10.808 16.8347 10.4985V1.16676C16.8347 0.857319 16.9576 0.560548 17.1764 0.341737C17.3952 0.122927 17.692 0 18.0015 0H27.3332C27.6427 0 27.9395 0.122927 28.1583 0.341737C28.3771 0.560548 28.5 0.857319 28.5 1.16676V10.4985C28.5 10.808 28.3771 11.1048 28.1583 11.3236C27.9395 11.5424 27.6427 11.6653 27.3332 11.6653H18.0015ZM1.66676 28C1.35732 28 1.06055 27.8771 0.841737 27.6583C0.622927 27.4395 0.5 27.1427 0.5 26.8332V17.4991C0.5 17.1897 0.622927 16.8929 0.841737 16.6741C1.06055 16.4553 1.35732 16.3324 1.66676 16.3324H11.0009C11.3103 16.3324 11.6071 16.4553 11.8259 16.6741C12.0447 16.8929 12.1676 17.1897 12.1676 17.4991V26.8332C12.1676 27.1427 12.0447 27.4395 11.8259 27.6583C11.6071 27.8771 11.3103 28 11.0009 28H1.66676ZM18.0015 28C17.692 28 17.3952 27.8771 17.1764 27.6583C16.9576 27.4395 16.8347 27.1427 16.8347 26.8332V17.4991C16.8347 17.1897 16.9576 16.8929 17.1764 16.6741C17.3952 16.4553 17.692 16.3324 18.0015 16.3324H27.3332C27.6427 16.3324 27.9395 16.4553 28.1583 16.6741C28.3771 16.8929 28.5 17.1897 28.5 17.4991V26.8332C28.5 27.1427 28.3771 27.4395 28.1583 27.6583C27.9395 27.8771 27.6427 28 27.3332 28H18.0015Z" fill="#0F70BB"/>
</svg>
