<svg width="29" height="30" viewBox="0 0 29 30" fill="none" xmlns="http://www.w3.org/2000/svg">
<g clip-path="url(#clip0_229_345)">
<path fill-rule="evenodd" clip-rule="evenodd" d="M3.625 6.54167C3.625 5.90073 3.87961 5.28604 4.33283 4.83283C4.78604 4.37961 5.40073 4.125 6.04167 4.125H22.9583C23.5993 4.125 24.214 4.37961 24.6672 4.83283C25.1204 5.28604 25.375 5.90073 25.375 6.54167V23.4583C25.375 24.0993 25.1204 24.714 24.6672 25.1672C24.214 25.6204 23.5993 25.875 22.9583 25.875H6.04167C5.40073 25.875 4.78604 25.6204 4.33283 25.1672C3.87961 24.714 3.625 24.0993 3.625 23.4583V6.54167ZM16.843 9.74979C16.4164 8.68283 14.8879 8.74325 14.5447 9.83921L12.4277 16.6131L11.9589 15.6742C11.8575 15.4717 11.7017 15.3013 11.509 15.1822C11.3163 15.0631 11.0943 15 10.8678 15H8.45833C8.13786 15 7.83052 15.1273 7.60391 15.3539C7.37731 15.5805 7.25 15.8879 7.25 16.2083C7.25 16.5288 7.37731 16.8361 7.60391 17.0628C7.83052 17.2894 8.13786 17.4167 8.45833 17.4167H10.1283L11.5928 20.3469C12.0845 21.3293 13.5225 21.2132 13.8499 20.1656L15.8485 13.7699L17 16.6494C17.1849 17.1134 17.6344 17.4167 18.1335 17.4167H20.5417C20.8621 17.4167 21.1695 17.2894 21.3961 17.0628C21.6227 16.8361 21.75 16.5288 21.75 16.2083C21.75 15.8879 21.6227 15.5805 21.3961 15.3539C21.1695 15.1273 20.8621 15 20.5417 15H18.943L16.843 9.74979Z" fill="#4D4D4D"/>
</g>
<defs>
<clipPath id="clip0_229_345">
<rect width="29" height="29" fill="white" transform="translate(0 0.5)"/>
</clipPath>
</defs>
</svg>
