<svg width="73" height="27" viewBox="0 0 73 27" fill="none" xmlns="http://www.w3.org/2000/svg">
<g clip-path="url(#clip0_425_2)">
<path d="M12.779 0.025003C10.9543 -0.0939686 9.12686 0.212767 7.44099 0.921003C5.75233 1.6295 4.25174 2.7213 3.05799 4.11C1.86007 5.50133 0.999432 7.15037 0.543091 8.92873C0.08675 10.7071 0.0470183 12.5668 0.426989 14.363C0.804017 16.1587 1.59119 17.8429 2.72699 19.284C3.86006 20.7228 5.31143 21.8791 6.96699 22.662C8.61975 23.4444 10.432 23.8314 12.2602 23.7921C14.0884 23.7529 15.8823 23.2886 17.5 22.436C17.5518 22.4095 17.6098 22.3973 17.6679 22.4004C17.726 22.4036 17.7823 22.4221 17.831 22.454C19.3672 23.4828 21.1793 24.0215 23.028 23.999C23.0717 23.9993 23.115 23.9909 23.1554 23.9743C23.1958 23.9577 23.2325 23.9332 23.2633 23.9024C23.2942 23.8715 23.3187 23.8348 23.3353 23.7944C23.3518 23.754 23.3603 23.7107 23.36 23.667V19.629C23.3605 19.5501 23.333 19.4736 23.2825 19.413C23.232 19.3524 23.1617 19.3117 23.084 19.298C22.7036 19.2374 22.3322 19.1303 21.978 18.979C21.912 18.9494 21.8575 18.8989 21.823 18.8353C21.7885 18.7717 21.7758 18.6985 21.787 18.627C21.7928 18.5793 21.8099 18.5337 21.837 18.494C22.9921 16.7554 23.6712 14.7444 23.8067 12.6615C23.9421 10.5786 23.5292 8.49655 22.609 6.623C21.6912 4.7523 20.2972 3.15616 18.567 1.995C16.8409 0.836425 14.8394 0.154414 12.765 0.018003L12.779 0.025003ZM4.84299 11.898C4.84192 10.4735 5.26108 9.08039 6.04799 7.893C6.83404 6.70954 7.95265 5.78507 9.26299 5.236C10.5727 4.68814 12.0162 4.54375 13.4085 4.82132C14.8008 5.09889 16.0785 5.78578 17.078 6.794C18.0809 7.80509 18.7633 9.08949 19.0399 10.4865C19.3165 11.8835 19.175 13.331 18.633 14.648C18.0909 15.9635 17.1712 17.0888 15.99 17.882C14.6119 18.8056 12.9556 19.2213 11.3047 19.0578C9.65382 18.8944 8.11116 18.1619 6.94099 16.986C5.59617 15.6335 4.84029 13.8043 4.83799 11.897L4.84299 11.898Z" fill="#699BF7"/>
</g>
<path d="M35.1469 19.1222V13.6494H36.9732V23H35.1834V21.3807H35.086C34.8709 21.8799 34.526 22.2959 34.0511 22.6287C33.5804 22.9574 32.9939 23.1218 32.2918 23.1218C31.6912 23.1218 31.1595 22.9899 30.6968 22.7261C30.2382 22.4582 29.877 22.0625 29.6132 21.539C29.3535 21.0154 29.2236 20.3681 29.2236 19.597V13.6494H31.0438V19.3778C31.0438 20.015 31.2204 20.5223 31.5735 20.8998C31.9265 21.2772 32.3851 21.4659 32.9493 21.4659C33.2902 21.4659 33.6291 21.3807 33.9659 21.2102C34.3068 21.0398 34.5889 20.7821 34.8121 20.4371C35.0394 20.0921 35.151 19.6538 35.1469 19.1222ZM39.4189 23V13.6494H41.2391V23H39.4189ZM40.3382 12.2066C40.0216 12.2066 39.7497 12.1011 39.5224 11.89C39.2992 11.6749 39.1876 11.4192 39.1876 11.123C39.1876 10.8226 39.2992 10.567 39.5224 10.3559C39.7497 10.1408 40.0216 10.0333 40.3382 10.0333C40.6547 10.0333 40.9246 10.1408 41.1478 10.3559C41.3751 10.567 41.4887 10.8226 41.4887 11.123C41.4887 11.4192 41.3751 11.6749 41.1478 11.89C40.9246 12.1011 40.6547 12.2066 40.3382 12.2066ZM43.4931 23V21.752L48.558 15.3174V15.2321H43.6575V13.6494H50.8287V14.9765L45.9586 21.332V21.4172H50.9992V23H43.4931ZM54.9668 10.5325V23H53.1466V10.5325H54.9668ZM61.4456 23.1887C60.5243 23.1887 59.7309 22.9919 59.0653 22.5982C58.4038 22.2005 57.8925 21.6425 57.5312 20.9241C57.1741 20.2017 56.9955 19.3555 56.9955 18.3856C56.9955 17.4278 57.1741 16.5836 57.5312 15.8531C57.8925 15.1226 58.3957 14.5524 59.041 14.1425C59.6903 13.7325 60.4493 13.5276 61.3178 13.5276C61.8454 13.5276 62.3567 13.6149 62.8519 13.7894C63.347 13.9639 63.7914 14.2378 64.1851 14.6112C64.5787 14.9846 64.8892 15.4696 65.1165 16.0662C65.3437 16.6587 65.4574 17.3791 65.4574 18.2273V18.8726H58.0243V17.5089H63.6737C63.6737 17.03 63.5763 16.6059 63.3815 16.2366C63.1867 15.8632 62.9127 15.569 62.5597 15.3539C62.2106 15.1388 61.8007 15.0313 61.3299 15.0313C60.8186 15.0313 60.3722 15.1571 59.9907 15.4087C59.6132 15.6563 59.321 15.9809 59.114 16.3827C58.9111 16.7804 58.8097 17.2127 58.8097 17.6794V18.7447C58.8097 19.3697 58.9192 19.9014 59.1384 20.3397C59.3616 20.778 59.6721 21.1128 60.0698 21.3442C60.4675 21.5714 60.9322 21.6851 61.4639 21.6851C61.8088 21.6851 62.1234 21.6364 62.4075 21.539C62.6916 21.4375 62.9371 21.2873 63.1441 21.0885C63.3511 20.8896 63.5093 20.6441 63.6189 20.3519L65.3417 20.6623C65.2037 21.1696 64.9562 21.614 64.599 21.9955C64.2459 22.373 63.8015 22.6672 63.2658 22.8782C62.7342 23.0852 62.1274 23.1887 61.4456 23.1887ZM71.8418 13.6494V15.1104H66.7343V13.6494H71.8418ZM68.104 11.4091H69.9242V20.2545C69.9242 20.6075 69.977 20.8734 70.0825 21.0519C70.188 21.2265 70.324 21.3462 70.4904 21.4111C70.6608 21.472 70.8455 21.5024 71.0443 21.5024C71.1904 21.5024 71.3183 21.4923 71.4279 21.472C71.5374 21.4517 71.6227 21.4355 71.6835 21.4233L72.0123 22.9269C71.9068 22.9675 71.7566 23.0081 71.5618 23.0487C71.367 23.0933 71.1235 23.1177 70.8313 23.1218C70.3524 23.1299 69.9059 23.0446 69.492 22.8661C69.078 22.6875 68.7432 22.4115 68.4875 22.0381C68.2318 21.6648 68.104 21.196 68.104 20.6319V11.4091Z" fill="#6F6F6F"/>
<defs>
<clipPath id="clip0_425_2">
<rect width="24" height="24" fill="white"/>
</clipPath>
</defs>
</svg>
