<svg width="59" height="49" viewBox="0 0 59 49" fill="none" xmlns="http://www.w3.org/2000/svg">
<g clip-path="url(#clip0_228_196)">
<path d="M5.97621 20.1318H0V14.6719H18.5112V20.1318H12.5375V35.9783H5.97621V20.1318ZM19.5315 14.6719H37.5019V20.1318H26.0952V22.8016H37.5019V27.8731H26.0952V30.5281H37.5019V35.9979H19.5315V14.6719ZM45.1719 30.533H47.7433C51.834 30.533 52.4313 27.2094 52.4313 25.2083C52.4846 24.5157 52.3849 23.8198 52.1391 23.17C51.8934 22.5203 51.5077 21.9326 51.0094 21.4486C50.5111 20.9646 49.9124 20.5961 49.2557 20.3694C48.5991 20.1427 47.9006 20.0633 47.2098 20.1368L47.2295 20.1343H45.1301V30.533H45.1719ZM38.6081 14.6719H49.3855C56.4925 14.6719 59 19.9204 59 25.2919C59 31.831 55.5362 35.9881 48.0997 35.9881H38.6057L38.6081 14.6719Z" fill="#F24E1E"/>
</g>
<defs>
<clipPath id="clip0_228_196">
<rect width="59" height="59" fill="white" transform="translate(0 -5)"/>
</clipPath>
</defs>
</svg>
