<svg width="128" height="29" viewBox="0 0 128 29" fill="none" xmlns="http://www.w3.org/2000/svg">
<g clip-path="url(#clip0_228_192)">
<path d="M39.9725 4.4825C39.738 3.61602 39.2807 2.82609 38.6459 2.19139C38.0112 1.55669 37.2212 1.09938 36.3547 0.865C33.1825 0 20.4165 0 20.4165 0C20.4165 0 7.64997 0.02625 4.47822 0.89125C3.61178 1.12567 2.82187 1.583 2.18717 2.2177C1.55247 2.85239 1.09514 3.6423 0.860723 4.50875C-0.0987775 10.145 -0.471027 18.7327 0.886973 24.1432C1.12139 25.0097 1.57872 25.7996 2.21342 26.4343C2.84812 27.069 3.63803 27.5263 4.50447 27.7607C7.67647 28.6257 20.4427 28.6257 20.4427 28.6257C20.4427 28.6257 33.209 28.6257 36.381 27.7607C37.2474 27.5263 38.0373 27.069 38.672 26.4343C39.3067 25.7996 39.7641 25.0097 39.9985 24.1432C41.0102 18.4992 41.3222 9.91675 39.9722 4.48275" fill="#FF0000"/>
<path d="M16.3532 20.4479L26.9437 14.3139L16.3532 8.17969V20.4479Z" fill="white"/>
<path d="M122.809 8.31166C124.198 8.31166 125.247 8.57366 125.981 9.07166C126.715 9.56982 127.239 10.3563 127.554 11.4312C127.868 12.5059 127.999 13.9737 127.999 15.8612V18.9284H121.262V19.8719L121.368 22.4672C121.446 23.0439 121.577 23.4634 121.787 23.7254C121.997 23.9877 122.337 24.1187 122.783 24.1187C123.386 24.1187 123.805 23.8829 124.015 23.4112C124.251 22.9392 124.356 22.1527 124.382 21.0779L127.868 21.2877C127.895 21.4449 127.895 21.6547 127.895 21.9167C127.895 23.5682 127.449 24.8004 126.532 25.6129C125.614 26.4254 124.356 26.8449 122.704 26.8449C120.712 26.8449 119.323 26.2159 118.536 24.9839C117.75 23.7517 117.331 21.8117 117.331 19.2167V16.0447C117.419 11.5884 118.203 8.32466 122.809 8.31166ZM74.3392 8.65241V21.7857C74.3392 22.5722 74.4177 23.1489 74.6012 23.4897C74.9735 24.2184 75.9383 24.0322 76.4625 23.6732C76.7651 23.4685 77.009 23.1884 77.1702 22.8607V8.65216H81.181V26.5564H78.0352L77.6945 24.3544H77.616C76.751 26.0059 75.4662 26.8447 73.7625 26.8447C71.14 26.8382 70.4982 24.9487 70.3455 23.0297L70.3355 22.8944C70.3166 22.6038 70.3055 22.3127 70.3023 22.0214V8.65241H74.3392ZM95.0222 8.65241V21.7857C95.0222 22.5722 95.1007 23.1489 95.2842 23.4897C95.6567 24.2184 96.6213 24.0322 97.1455 23.6732C97.4481 23.4685 97.692 23.1884 97.8532 22.8607V8.65216H101.864V26.5564H98.7182L98.3775 24.3544H98.299C97.434 26.0059 96.1493 26.8447 94.4455 26.8447C91.823 26.8382 91.1813 24.9487 91.0285 23.0297L91.0185 22.8944C90.9996 22.6038 90.9885 22.3127 90.9853 22.0214V8.65241H95.0222ZM62.7 8.31166C64.0107 8.31166 65.0855 8.57366 65.872 9.12416C66.6583 9.67466 67.2612 10.5137 67.6283 11.6669C67.9953 12.8204 68.1787 14.3669 68.1787 16.2807V18.8757C68.1787 20.7894 67.9953 22.3099 67.6283 23.4632C67.2612 24.6169 66.6845 25.4557 65.872 26.0062C65.0595 26.5304 63.9583 26.8187 62.5952 26.8187C61.1795 26.8449 60.0785 26.5567 59.266 26.0324C58.4535 25.4819 57.8765 24.6429 57.536 23.4897C57.195 22.3362 57.0378 20.8157 57.0378 18.9022V16.3067C57.0378 14.3929 57.2212 12.8202 57.6145 11.6667C58.0077 10.4872 58.6105 9.64816 59.4495 9.12416C60.2883 8.59966 61.363 8.31141 62.7 8.31141M108.156 1.12891V10.5659H108.182C108.549 9.88441 109.021 9.33391 109.676 8.91441C110.288 8.50305 111.009 8.28401 111.747 8.28541C112.717 8.28541 113.451 8.54741 114.001 9.04541C114.552 9.56991 114.945 10.3824 115.181 11.5097C115.41 12.6017 115.539 14.1119 115.547 16.0164L115.548 16.2022V19.0332C115.548 21.6807 115.207 23.6469 114.578 24.9052C113.923 26.1634 112.926 26.7927 111.563 26.7927C110.803 26.7927 110.122 26.6092 109.493 26.2684C108.936 25.944 108.475 25.4792 108.155 24.9204L108.103 24.8264H108.024L107.605 26.5304H104.276V1.12916L108.156 1.12891ZM92.1123 2.04641V5.29666H88.1277V26.5564H84.1957V5.29691H80.185V2.04666L92.1123 2.04641ZM48.885 2.04641L48.8875 2.05641C48.9258 2.22666 49.4557 4.58291 50.0387 7.32816L50.0848 7.54566L50.1543 7.87441L50.2007 8.09516L50.224 8.20591L50.2705 8.42791L50.2938 8.53916L50.34 8.76191L50.4075 9.08766C50.8013 10.9887 51.177 12.8952 51.4017 14.2622H51.5067C51.722 13.0359 52.0348 11.4667 52.3683 9.86441L52.4557 9.44591C52.4996 9.23624 52.5437 9.02691 52.5882 8.81791L52.6567 8.49366C53.1096 6.37036 53.576 4.24999 54.056 2.13266L54.0635 2.09891L54.0755 2.04641H58.0863L53.4463 18.5877V26.5304H49.488V18.6137H49.4618L44.8742 2.04616L48.885 2.04641ZM62.6213 11.0902C62.0707 11.0902 61.7037 11.3787 61.468 11.9817C61.2322 12.5847 61.1273 13.5019 61.1273 14.7867V20.3702C61.1273 21.6809 61.232 22.6507 61.4417 23.2277C61.6516 23.8043 62.0448 24.0927 62.6213 24.0927C63.1718 24.0927 63.565 23.8043 63.801 23.2277C64.037 22.6507 64.1417 21.6809 64.1417 20.3702V14.7864C64.1417 13.5019 64.0367 12.5582 63.801 11.9814C63.565 11.3787 63.1718 11.0902 62.6213 11.0902ZM108.863 11.6147C108.544 11.9097 108.317 12.2734 108.181 12.7282L108.156 12.8204V22.9914C108.481 23.5419 108.942 23.9089 109.754 23.9352C110.174 23.9352 110.515 23.7779 110.777 23.4634C111.039 23.1489 111.222 22.6246 111.327 21.8904C111.428 21.1859 111.48 20.2156 111.484 18.9794V16.4904C111.484 15.0749 111.432 14.0002 111.353 13.2399C111.248 12.4797 111.118 11.9292 110.882 11.6147C110.426 10.9592 109.44 10.9672 108.863 11.6147ZM122.731 11.0117C122.285 11.0378 121.97 11.1689 121.787 11.4049C121.577 11.6669 121.446 12.0602 121.368 12.6369C121.29 13.2019 121.264 15.1769 121.262 15.2559V16.5429H124.198V15.4079V15.4297C124.197 15.8264 124.188 15.1994 124.17 14.4297L124.168 14.3262C124.151 13.6497 124.127 12.8954 124.094 12.6369C124.015 12.0339 123.884 11.6144 123.674 11.3787C123.465 11.1427 123.15 11.0117 122.73 11.0117" fill="#282828"/>
</g>
<defs>
<clipPath id="clip0_228_192">
<rect width="128" height="29" fill="white"/>
</clipPath>
</defs>
</svg>
